<svg width="96" height="45" viewBox="0 0 96 45" fill="none" xmlns="http://www.w3.org/2000/svg">
<path d="M0.93 33L8.31 13.68H13.53L20.91 33H15.87L14.13 28.62H7.68L5.97 33H0.93ZM8.34 25.05H13.47L10.89 18.33L8.34 25.05ZM23.3562 33V18.78H27.8562L28.0062 20.01C28.5862 19.61 29.3162 19.26 30.1962 18.96C31.0762 18.64 32.0162 18.48 33.0162 18.48C34.8562 18.48 36.1962 18.92 37.0362 19.8C37.8762 20.68 38.2962 22.04 38.2962 23.88V33H33.4662V24.27C33.4662 23.47 33.2962 22.9 32.9562 22.56C32.6162 22.22 32.0062 22.05 31.1262 22.05C30.6062 22.05 30.0762 22.17 29.5362 22.41C28.9962 22.65 28.5462 22.95 28.1862 23.31V33H23.3562ZM47.048 33.3C45.288 33.3 43.988 32.85 43.148 31.95C42.328 31.05 41.918 29.81 41.918 28.23V22.44H39.998V18.78H41.918V15.81L46.748 14.52V18.78H50.198L49.988 22.44H46.748V27.9C46.748 28.58 46.918 29.06 47.258 29.34C47.598 29.6 48.108 29.73 48.788 29.73C49.368 29.73 49.958 29.63 50.558 29.43V32.7C49.618 33.1 48.448 33.3 47.048 33.3ZM56.8587 33.3C55.9587 33.3 55.1187 33.14 54.3387 32.82C53.5787 32.5 52.9687 32.01 52.5087 31.35C52.0487 30.67 51.8187 29.83 51.8187 28.83C51.8187 27.37 52.3087 26.23 53.2887 25.41C54.2887 24.57 55.7787 24.15 57.7587 24.15H61.7187V23.82C61.7187 23.1 61.4787 22.59 60.9987 22.29C60.5187 21.97 59.6187 21.81 58.2987 21.81C56.6787 21.81 55.0887 22.06 53.5287 22.56V19.44C54.2287 19.16 55.0787 18.93 56.0787 18.75C57.0987 18.57 58.1687 18.48 59.2887 18.48C61.4887 18.48 63.2087 18.93 64.4487 19.83C65.7087 20.73 66.3387 22.16 66.3387 24.12V33H62.1087L61.8687 31.8C61.3487 32.28 60.6787 32.65 59.8587 32.91C59.0587 33.17 58.0587 33.3 56.8587 33.3ZM58.3887 30.33C59.1487 30.33 59.8087 30.2 60.3687 29.94C60.9287 29.68 61.3787 29.35 61.7187 28.95V26.94H58.2987C56.8787 26.94 56.1687 27.51 56.1687 28.65C56.1687 29.17 56.3487 29.58 56.7087 29.88C57.0687 30.18 57.6287 30.33 58.3887 30.33ZM69.2351 39.48V18.78H73.4351L73.6751 20.01C74.2551 19.53 74.9051 19.16 75.6251 18.9C76.3451 18.62 77.1851 18.48 78.1451 18.48C80.1651 18.48 81.7651 19.03 82.9451 20.13C84.1251 21.21 84.7151 23.03 84.7151 25.59C84.7151 28.13 84.1051 30.05 82.8851 31.35C81.6851 32.65 80.0251 33.3 77.9051 33.3C76.4051 33.3 75.1251 32.99 74.0651 32.37V39.48H69.2351ZM76.6751 29.76C78.7551 29.76 79.7951 28.34 79.7951 25.5C79.7951 24.14 79.5551 23.22 79.0751 22.74C78.5951 22.26 77.8251 22.02 76.7651 22.02C75.7451 22.02 74.8451 22.38 74.0651 23.1V28.86C74.4451 29.14 74.8251 29.36 75.2051 29.52C75.6051 29.68 76.0951 29.76 76.6751 29.76Z" fill="black"/>
<rect x="89" y="26" width="7" height="7" fill="#595794"/>
</svg>
